<svg width="249" height="249" viewBox="0 0 249 249" fill="none" xmlns="http://www.w3.org/2000/svg">
    <rect width="249" height="249" fill="#010101" />
    <rect x="16.1621" y="126.4" width="147" height="147" transform="rotate(-45.0179 16.1621 126.4)" stroke="#A69123" stroke-width="5" />
    <path d="M29.9268 89.7861L82.0798 36.6335L156.542 35.9268L209.695 88.0798L210.401 162.542L158.248 215.695L83.7861 216.401L30.6336 164.248L29.9268 89.7861Z" stroke="#A69123" stroke-width="5" />
    <path d="M39.0851 93.4086L85.8777 45.7192L152.687 45.085L200.376 91.8777L201.01 158.687L154.218 206.376L87.4087 207.01L39.7192 160.218L39.0851 93.4086Z" stroke="#A69123" stroke-width="5" />
    <rect x="49.3615" y="202.248" width="147" height="147" transform="rotate(-92.2477 49.3615 202.248)" stroke="#A69123" stroke-width="5" />
    <path d="M103.109 151.609V93.5312H93.3125V91.1406H122.984C129.547 91.1406 135.156 92.0781 139.812 93.9531C144.5 95.7969 148.406 99.4375 151.531 104.875C154.656 110.281 156.219 116.156 156.219 122.5C156.219 129.219 154.5 135.219 151.062 140.5C147.625 145.781 143.656 149.359 139.156 151.234C134.688 153.078 129.234 154 122.797 154H93.3125V151.609H103.109ZM114.266 93.5312V151.609H122.422C126.703 151.609 130.188 151.219 132.875 150.438C135.594 149.656 137.828 147.953 139.578 145.328C141.359 142.703 142.562 139.375 143.188 135.344C143.812 131.312 144.125 126.047 144.125 119.547C144.125 111.734 143.125 105.906 141.125 102.062C139.156 98.2188 136.734 95.8438 133.859 94.9375C130.984 94 127.234 93.5312 122.609 93.5312H114.266Z" fill="#A69123" />
</svg>